<?xml version="1.0" encoding="utf-8"?>
<!-- Generator: Adobe Illustrator 26.0.1, SVG Export Plug-In . SVG Version: 6.00 Build 0)  -->
<svg version="1.1" id="Слой_1" xmlns="http://www.w3.org/2000/svg" xmlns:xlink="http://www.w3.org/1999/xlink" x="0px" y="0px"
	 viewBox="0 0 120 120" style="enable-background:new 0 0 120 120;" xml:space="preserve">
<style type="text/css">
	.st0{fill-rule:evenodd;clip-rule:evenodd;fill:#FFC59E;}
	.st1{fill:#FFFFFF;stroke:#FFFFFF;}
</style>
<g>
	<path class="st0" d="M60,120C26.9,120,0,93.1,0,60S26.9,0,60,0s60,26.9,60,60S93.1,120,60,120z"/>
</g>
<path class="st1" d="M46.7,60c0-0.6,0.3-1.3,0.8-1.8l15.8-15.5c1-1,2.6-1,3.6,0c1,1,1,2.6,0,3.6L52.9,60l14,13.7c1,1,1,2.6,0,3.6
	c-1,1-2.6,1-3.6,0L47.5,61.8C47,61.3,46.7,60.6,46.7,60z"/>
</svg>
