<svg width="46" height="46" viewBox="0 0 46 46" fill="none" xmlns="http://www.w3.org/2000/svg">
<path fill-rule="evenodd" clip-rule="evenodd" d="M11 22.5C11 15.6075 16.6075 10 23.5 10C30.3925 10 36 15.6075 36 22.5C36 29.3925 30.3925 35 23.5 35C16.6075 35 11 29.3925 11 22.5ZM13.6595 22.5004C13.6595 27.9265 18.0741 32.3406 23.4999 32.3406C28.9258 32.3406 33.3404 27.9265 33.3404 22.5004C33.3404 17.0743 28.9258 12.6602 23.4999 12.6602C18.0741 12.6602 13.6595 17.0743 13.6595 22.5004Z" fill="#FFC59E"/>
<path d="M30.0144 22.1141H24.3968V15.3598C24.3968 14.7914 23.936 14.3306 23.3676 14.3306C22.7992 14.3306 22.3384 14.7914 22.3384 15.3598V23.1433C22.3384 23.7117 22.7992 24.1726 23.3676 24.1726H30.0144C30.5828 24.1726 31.0436 23.7117 31.0436 23.1433C31.0436 22.575 30.5828 22.1141 30.0144 22.1141Z" fill="#FFC59E"/>
</svg>
