<?xml version="1.0" encoding="utf-8"?>
<!-- Generator: Adobe Illustrator 26.0.1, SVG Export Plug-In . SVG Version: 6.00 Build 0)  -->
<svg version="1.1" id="Слой_1" xmlns="http://www.w3.org/2000/svg" xmlns:xlink="http://www.w3.org/1999/xlink" x="0px" y="0px"
	 viewBox="0 0 120 120" style="enable-background:new 0 0 120 120;" xml:space="preserve">
<style type="text/css">
	.st0{fill-rule:evenodd;clip-rule:evenodd;fill:#FFC59E;}
	.st1{fill:#FFFFFF;stroke:#FFFFFF;}
</style>
<g>
	<path class="st0" d="M60,120c33.1,0,60-26.9,60-60S93.1,0,60,0S0,26.9,0,60S26.9,120,60,120z"/>
</g>
<path class="st1" d="M73.3,60c0-0.6-0.3-1.3-0.8-1.8L56.7,42.7c-1-1-2.6-1-3.6,0c-1,1-1,2.6,0,3.6l14,13.7L53,73.7c-1,1-1,2.6,0,3.6
	c1,1,2.6,1,3.6,0l15.8-15.5C73,61.3,73.3,60.6,73.3,60z"/>
</svg>
