<svg width="120" height="120" viewBox="0 0 120 120" fill="none" xmlns="http://www.w3.org/2000/svg">
<g filter="url(#filter0_d_2_370)">
<path fill-rule="evenodd" clip-rule="evenodd" d="M60 78C71.0457 78 80 69.0457 80 58C80 46.9543 71.0457 38 60 38C48.9543 38 40 46.9543 40 58C40 69.0457 48.9543 78 60 78Z" fill="#FFC59E"/>
</g>
<path d="M64.4286 58C64.4286 57.7849 64.3446 57.5699 64.1768 57.4059L58.8966 52.2462C58.5607 51.9179 58.0162 51.9179 57.6804 52.2462C57.3447 52.5743 57.3447 53.1063 57.6804 53.4346L62.3526 58L57.6806 62.5654C57.3448 62.8936 57.3448 63.4256 57.6806 63.7537C58.0163 64.0821 58.5609 64.0821 58.8968 63.7537L64.177 58.594C64.3447 58.43 64.4286 58.215 64.4286 58Z" fill="white" stroke="white"/>
<defs>
<filter id="filter0_d_2_370" x="0" y="0" width="120" height="120" filterUnits="userSpaceOnUse" color-interpolation-filters="sRGB">
<feFlood flood-opacity="0" result="BackgroundImageFix"/>
<feColorMatrix in="SourceAlpha" type="matrix" values="0 0 0 0 0 0 0 0 0 0 0 0 0 0 0 0 0 0 127 0" result="hardAlpha"/>
<feOffset dy="2"/>
<feGaussianBlur stdDeviation="20"/>
<feColorMatrix type="matrix" values="0 0 0 0 0 0 0 0 0 0 0 0 0 0 0 0 0 0 0.2 0"/>
<feBlend mode="normal" in2="BackgroundImageFix" result="effect1_dropShadow_2_370"/>
<feBlend mode="normal" in="SourceGraphic" in2="effect1_dropShadow_2_370" result="shape"/>
</filter>
</defs>
</svg>
