<svg width="80" height="95" viewBox="0 0 80 95" fill="none" xmlns="http://www.w3.org/2000/svg">
<path d="M42.0944 33.0302C42.5287 32.884 43.0798 32.171 43.1082 31.7188C43.7453 20.8114 34.7387 6.27071 31.4952 1.41602C28.884 2.45683 26.3433 4.13912 23.9976 6.70286C23.9976 6.70286 19.3132 9.84645 17.6514 25.1206C26.4129 36.4674 37.2999 34.6119 42.0944 33.0302Z" fill="#FFC59E"/>
<path d="M76.8418 13.6697L62.4881 10.1662C62.4881 10.1662 62.0789 6.7031 58.0087 5.28009C55.042 4.24038 44.8198 -1.6347 34.7622 0.440355C38.5647 6.22828 47.0236 20.4951 46.3548 31.9065C46.2552 33.7008 44.8289 35.5545 43.1142 36.1212C41.4658 36.6697 38.5075 37.4289 34.9121 37.4289C29.7029 37.4289 23.1601 35.8269 17.2657 29.6677C17.1501 31.625 17.084 33.742 17.0724 36.0326C17.0064 47.8473 1.99884 59.0493 1.99884 59.0493L0 63.1918C4.07974 72.0252 10.4752 79.5753 18.4152 85.0546C18.7751 79.4119 20.1901 74.9915 21.829 71.6696C24.9328 65.3602 29.2857 61.8585 31.507 60.3768C31.9847 47.3546 36.2114 43.5487 39.7376 42.6786C40.8207 42.4102 41.9625 42.6414 42.8607 43.3157C43.883 44.0786 44.5405 45.3379 44.6072 46.6897C44.7885 50.19 46.8573 52.6472 47.8383 53.6231C49.4291 53.7712 50.9476 54.0232 52.3772 54.3697L52.5085 53.1418L53.6011 42.5323C53.7864 40.7417 55.3957 39.2323 57.1772 38.977C63.9421 37.9916 79.0145 33.9845 79.9941 17.7009C80.1068 15.9048 78.5901 14.0986 76.8418 13.6697ZM54.4789 17.4522C53.4662 17.4522 52.6438 16.6335 52.6438 15.6197C52.6438 14.6058 53.4662 13.7871 54.4789 13.7871C55.4938 13.7871 56.3122 14.6058 56.3122 15.6197C56.3085 16.6317 55.492 17.4522 54.4789 17.4522Z" fill="#FFC59E"/>
<path d="M62.4921 65.9362C61.9494 61.3197 55.4329 57.5156 47.0123 56.9752C47.0123 56.9752 42.5412 53.538 42.2411 47.6049C42.1919 46.7067 41.5205 45.814 40.6485 46.0291C38.3984 46.5827 34.578 49.4714 34.3876 62.6643C34.3876 62.6643 22.1495 68.8384 21.2651 86.6383C29.1099 91.3515 38.2515 94.1162 48.009 94.277L47.8996 91.7271C47.8591 90.8289 48.5108 89.8439 49.3514 89.5292L59.7755 85.6197C59.7755 85.6197 64.6642 85.894 66.6976 82.2238C67.7271 80.3737 68.6826 79.0809 69.3865 78.248C69.9623 77.5627 69.9532 76.5832 69.3088 75.957C67.179 73.9013 62.8976 69.3861 62.4921 65.9362ZM56.3085 70.4047C55.2976 70.4047 54.477 69.5882 54.477 68.5736C54.477 67.5569 55.2976 66.7385 56.3085 66.7385C57.323 66.7385 58.1436 67.5569 58.1436 68.5736C58.1439 69.5878 57.3234 70.4047 56.3085 70.4047Z" fill="#FFC59E"/>
</svg>
