<svg width="84" height="76" viewBox="0 0 84 76" fill="none" xmlns="http://www.w3.org/2000/svg">
<path fill-rule="evenodd" clip-rule="evenodd" d="M65.561 1.60987C60.5285 -1.37046 54.0265 0.217022 51.1625 5.23246L36.4377 31.0235L25.7627 28.9933C26.3045 22.3883 21.7403 16.2551 15.1228 14.9973C8.1349 13.6697 1.51 18.2795 0.322504 25.296C-0.863221 32.3121 3.8379 39.0776 10.8266 40.4066C15.622 41.3183 20.2468 39.4312 23.0595 35.8909L36.134 38.3765L29.5763 49.8618C25.0344 49.6945 20.5891 51.9657 18.1831 56.1779C14.6781 62.3179 16.8316 70.2504 22.9909 73.8989C29.1522 77.5473 36.9863 75.5281 40.4912 69.39C43.8102 63.5766 42.0531 56.1565 36.6275 52.2874L41.9815 42.9084L71.3364 48.4893C77.0459 49.5752 82.4767 45.691 83.446 39.9589L47.5604 33.1377L65.561 1.60987ZM15.8539 34.2258C12.5353 35.7466 8.56946 34.2461 6.99633 30.8745C5.4232 27.5029 6.83841 23.5366 10.1569 22.0159C13.4762 20.4948 17.4413 21.9956 19.0144 25.3672C20.5875 28.7387 19.1732 32.7047 15.8539 34.2258ZM23.1499 65.5161C24.7231 68.8877 28.6889 70.3882 32.0075 68.8674C35.3269 67.3463 36.7412 63.3802 35.1681 60.0088C33.595 56.6372 29.6299 55.1364 26.3105 56.6575C22.9919 58.1782 21.5768 62.1445 23.1499 65.5161Z" fill="#FFC59E"/>
</svg>
